<svg xmlns="http://www.w3.org/2000/svg" viewBox="0 0 1600 900" font-family="'Inter','Segoe UI',system-ui,-apple-system,sans-serif" role="img" aria-labelledby="t d">
  <title id="t">Baked vs live: one pipeline, two sources</title>
  <desc id="d">A three-band pipeline. In the host band, content lives in git and is either baked into a manifest at build time or read live from the GitHub API. In the kbx overlay band, loadKnowledgeBase consumes whichever source. In the people band, one pure graph renders as the explorer SPA.</desc>
  <defs>
    <linearGradient id="node" x1="0" y1="0" x2="1" y2="1">
      <stop offset="0" stop-color="#8b5cf6"/>
      <stop offset="1" stop-color="#6366f1"/>
    </linearGradient>
    <linearGradient id="card" x1="0" y1="0" x2="0" y2="1">
      <stop offset="0" stop-color="#faf5ff"/>
      <stop offset="1" stop-color="#f3f0ff"/>
    </linearGradient>
    <filter id="cs" x="-4%" y="-12%" width="108%" height="128%">
      <feDropShadow dx="0" dy="10" stdDeviation="18" flood-color="#6d28d9" flood-opacity="0.12"/>
    </filter>
    <filter id="ss" x="-12%" y="-24%" width="124%" height="156%">
      <feDropShadow dx="0" dy="5" stdDeviation="8" flood-color="#0f172a" flood-opacity="0.10"/>
    </filter>
    <marker id="m-human" viewBox="0 0 10 10" refX="6.5" refY="5" markerWidth="7" markerHeight="7" orient="auto-start-reverse">
      <path d="M1.5,1 L8.5,5 L1.5,9" fill="none" stroke="#0d9488" stroke-width="1.8" stroke-linecap="round" stroke-linejoin="round"/>
    </marker>
    <marker id="m-kbx" viewBox="0 0 10 10" refX="6.5" refY="5" markerWidth="7" markerHeight="7" orient="auto-start-reverse">
      <path d="M1.5,1 L8.5,5 L1.5,9" fill="none" stroke="#7c3aed" stroke-width="1.8" stroke-linecap="round" stroke-linejoin="round"/>
    </marker>
    <marker id="m-host" viewBox="0 0 10 10" refX="6.5" refY="5" markerWidth="7" markerHeight="7" orient="auto-start-reverse">
      <path d="M1.5,1 L8.5,5 L1.5,9" fill="none" stroke="#64748b" stroke-width="1.8" stroke-linecap="round" stroke-linejoin="round"/>
    </marker>
    <style>
    g[class^="st"],path[class^="ed"]{animation-duration:16s;animation-timing-function:ease-in-out;animation-iteration-count:infinite}
    g[class^="st"]{transform-box:fill-box;transform-origin:center}
    @keyframes st0{0%{opacity:0;transform:scale(.6)}2.0%{opacity:0;transform:scale(.6)}4.2%{opacity:1;transform:scale(1)}84%{opacity:1;transform:scale(1)}92%{opacity:0;transform:scale(.6)}100%{opacity:0;transform:scale(.6)}}
    .st0{animation-name:st0}
    @keyframes st1{0%{opacity:0;transform:scale(.6)}16.7%{opacity:0;transform:scale(.6)}18.9%{opacity:1;transform:scale(1)}84%{opacity:1;transform:scale(1)}92%{opacity:0;transform:scale(.6)}100%{opacity:0;transform:scale(.6)}}
    .st1{animation-name:st1}
    @keyframes st2{0%{opacity:0;transform:scale(.6)}31.4%{opacity:0;transform:scale(.6)}33.6%{opacity:1;transform:scale(1)}84%{opacity:1;transform:scale(1)}92%{opacity:0;transform:scale(.6)}100%{opacity:0;transform:scale(.6)}}
    .st2{animation-name:st2}
    @keyframes st3{0%{opacity:0;transform:scale(.6)}46.0%{opacity:0;transform:scale(.6)}48.2%{opacity:1;transform:scale(1)}84%{opacity:1;transform:scale(1)}92%{opacity:0;transform:scale(.6)}100%{opacity:0;transform:scale(.6)}}
    .st3{animation-name:st3}
    @keyframes st4{0%{opacity:0;transform:scale(.6)}60.7%{opacity:0;transform:scale(.6)}62.9%{opacity:1;transform:scale(1)}84%{opacity:1;transform:scale(1)}92%{opacity:0;transform:scale(.6)}100%{opacity:0;transform:scale(.6)}}
    .st4{animation-name:st4}
    @keyframes ed0{0%{stroke-dashoffset:var(--len);opacity:0}9.3%{stroke-dashoffset:var(--len);opacity:0}9.7%{opacity:1}12.3%{stroke-dashoffset:0;opacity:1}84%{stroke-dashoffset:0;opacity:1}92%{stroke-dashoffset:0;opacity:0}100%{stroke-dashoffset:var(--len);opacity:0}}
    .ed0{animation-name:ed0}
    @keyframes ed1{0%{stroke-dashoffset:var(--len);opacity:0}38.6%{stroke-dashoffset:var(--len);opacity:0}39.0%{opacity:1}41.6%{stroke-dashoffset:0;opacity:1}84%{stroke-dashoffset:0;opacity:1}92%{stroke-dashoffset:0;opacity:0}100%{stroke-dashoffset:var(--len);opacity:0}}
    .ed1{animation-name:ed1}
    @keyframes ed2{0%{stroke-dashoffset:var(--len);opacity:0}38.6%{stroke-dashoffset:var(--len);opacity:0}39.0%{opacity:1}41.6%{stroke-dashoffset:0;opacity:1}84%{stroke-dashoffset:0;opacity:1}92%{stroke-dashoffset:0;opacity:0}100%{stroke-dashoffset:var(--len);opacity:0}}
    .ed2{animation-name:ed2}
    @keyframes ed3{0%{stroke-dashoffset:var(--len);opacity:0}53.3%{stroke-dashoffset:var(--len);opacity:0}53.7%{opacity:1}56.3%{stroke-dashoffset:0;opacity:1}84%{stroke-dashoffset:0;opacity:1}92%{stroke-dashoffset:0;opacity:0}100%{stroke-dashoffset:var(--len);opacity:0}}
    .ed3{animation-name:ed3}
    @media (prefers-reduced-motion:reduce){g[class^="st"],path[class^="ed"]{animation:none!important;opacity:1!important;stroke-dashoffset:0!important}}
    </style>
  </defs>

  <rect width="1600" height="900" fill="#ffffff"/>

  <text x="800" y="48" text-anchor="middle" font-size="30" font-weight="800" fill="#111827">Baked vs live: one pipeline, two sources</text>
  <text x="800" y="78" text-anchor="middle" font-size="16" fill="#6b7280">VITE_KB_LOCAL picks a build-time manifest or the live GitHub API — everything downstream is identical</text>

  <text x="80" y="120" font-size="14" font-weight="700" letter-spacing="2" fill="#0d9488">PEOPLE · SURFACES</text>

  <rect x="80" y="300" width="1440" height="280" rx="12" fill="url(#card)" stroke="#ddd6fe" stroke-width="1.5" filter="url(#cs)"/>
  <text x="110" y="334" font-size="14" font-weight="700" letter-spacing="2.5" fill="#6d28d9">THE OVERLAY · kbx</text>

  <text x="80" y="790" font-size="14" font-weight="700" letter-spacing="2" fill="#475569">HOST · SYSTEMS OF RECORD</text>

    <path class="ed0" d="M224,642 L224,469 Q224,455 238,455 L395,455" fill="none" stroke="#475569" stroke-width="2.2" stroke-opacity="0.75" marker-end="url(#m-host)" stroke-dasharray="368" style="--len:368"/>
    <path class="ed1" d="M622,455 L971,455" fill="none" stroke="#6d28d9" stroke-width="2.2" stroke-opacity="0.75" marker-end="url(#m-kbx)" stroke-dasharray="359" style="--len:359"/>
    <path class="ed2" d="M800,642 L800,469 Q800,455 814,455 L971,455" fill="none" stroke="#475569" stroke-width="2.2" stroke-opacity="0.75" marker-end="url(#m-host)" stroke-dasharray="368" style="--len:368"/>
    <path class="ed3" d="M1088,417 L1088,219 Q1088,205 1102,205 L1259,205" fill="none" stroke="#6d28d9" stroke-width="2.2" stroke-opacity="0.75" marker-end="url(#m-kbx)" stroke-dasharray="393" style="--len:393"/>

    <g class="st0">
    <rect x="114" y="642" width="220" height="76" rx="10" fill="#ffffff" stroke="#475569" stroke-opacity="0.5" stroke-width="1.6" filter="url(#ss)"/>
    <g transform="translate(304,652) scale(0.8)" fill="none" stroke="#475569" stroke-width="1.8" stroke-linecap="round" stroke-linejoin="round"><ellipse cx="12" cy="6" rx="7.5" ry="3"/><path d="M4.5,6 v12 c0,1.7 3.4,3 7.5,3 s7.5,-1.3 7.5,-3 v-12"/><path d="M4.5,12 c0,1.7 3.4,3 7.5,3 s7.5,-1.3 7.5,-3"/></g>
    <text x="128" y="668" font-size="14" font-weight="600" fill="#111827">Content lives in git</text>
    <text x="128" y="688" font-size="12" fill="#6b7280">config.yaml + content/*.md</text>
    <text x="128" y="704" font-size="12" fill="#6b7280">in the host repository</text>
    <circle cx="114" cy="642" r="12.5" fill="url(#node)"/>
    <text x="114" y="646.5" text-anchor="middle" font-size="13" font-weight="700" fill="#ffffff">1</text>
    </g>
    <g class="st1">
    <rect x="402" y="417" width="220" height="76" rx="10" fill="#ffffff" stroke="#6d28d9" stroke-opacity="0.5" stroke-width="1.6" filter="url(#ss)"/>
    <g transform="translate(592,427) scale(0.8)" fill="none" stroke="#6d28d9" stroke-width="1.8" stroke-linecap="round" stroke-linejoin="round"><circle cx="12" cy="12" r="3.4"/><path d="M12,3.8 v2.6 M12,17.6 v2.6 M3.8,12 h2.6 M17.6,12 h2.6 M6.1,6.1 l1.8,1.8 M16.1,16.1 l1.8,1.8 M17.9,6.1 l-1.8,1.8 M7.9,16.1 l-1.8,1.8"/></g>
    <text x="416" y="443" font-size="14" font-weight="600" fill="#111827">Bake at build time</text>
    <text x="416" y="463" font-size="12" fill="#6b7280">generate-manifest.js →</text>
    <text x="416" y="479" font-size="12" fill="#6b7280">src/generated/repo-manifest.json</text>
    <circle cx="402" cy="417" r="12.5" fill="url(#node)"/>
    <text x="402" y="421.5" text-anchor="middle" font-size="13" font-weight="700" fill="#ffffff">2</text>
    </g>
    <g class="st2">
    <rect x="690" y="642" width="220" height="76" rx="10" fill="#ffffff" stroke="#475569" stroke-opacity="0.5" stroke-width="1.6" filter="url(#ss)"/>
    <g transform="translate(880,652) scale(0.8)" fill="none" stroke="#475569" stroke-width="1.8" stroke-linecap="round" stroke-linejoin="round"><path d="M4,15 v3.2 c0,0.8 0.7,1.5 1.5,1.5 h13 c0.8,0 1.5,-0.7 1.5,-1.5 v-3.2"/><path d="M12,3.6 v10.2 M7.4,9.2 L12,13.8 16.6,9.2"/></g>
    <text x="704" y="668" font-size="14" font-weight="600" fill="#111827">…or read it live</text>
    <text x="704" y="688" font-size="12" fill="#6b7280">GitHubApiSource calls</text>
    <text x="704" y="704" font-size="12" fill="#6b7280">the GitHub REST/GraphQL API</text>
    <circle cx="690" cy="642" r="12.5" fill="url(#node)"/>
    <text x="690" y="646.5" text-anchor="middle" font-size="13" font-weight="700" fill="#ffffff">3</text>
    </g>
    <g class="st3">
    <rect x="978" y="417" width="220" height="76" rx="10" fill="#ffffff" stroke="#6d28d9" stroke-opacity="0.5" stroke-width="1.6" filter="url(#ss)"/>
    <g transform="translate(1168,427) scale(0.8)" fill="none" stroke="#6d28d9" stroke-width="1.8" stroke-linecap="round" stroke-linejoin="round"><path d="M12,3.6 l8,4.5 v8.9 l-8,4.5 -8,-4.5 v-8.9 z"/><path d="M4,8.1 l8,4.5 8,-4.5 M12,12.6 v8.9"/></g>
    <text x="992" y="443" font-size="14" font-weight="600" fill="#111827">loadKnowledgeBase()</text>
    <text x="992" y="463" font-size="12" fill="#6b7280">both sources converge here</text>
    <text x="992" y="479" font-size="12" fill="#6b7280">source.getRepoData() → engine</text>
    <circle cx="978" cy="417" r="12.5" fill="url(#node)"/>
    <text x="978" y="421.5" text-anchor="middle" font-size="13" font-weight="700" fill="#ffffff">4</text>
    </g>
    <g class="st4">
    <rect x="1266" y="167" width="220" height="76" rx="10" fill="#ffffff" stroke="#0d9488" stroke-opacity="0.5" stroke-width="1.6" filter="url(#ss)"/>
    <g transform="translate(1456,177) scale(0.8)" fill="none" stroke="#0d9488" stroke-width="1.8" stroke-linecap="round" stroke-linejoin="round"><circle cx="12" cy="12" r="8.6"/><path d="M3.6,12 h16.8 M12,3.4 c2.6,2.4 2.6,14.8 0,17.2 c-2.6,-2.4 -2.6,-14.8 0,-17.2"/></g>
    <text x="1280" y="193" font-size="14" font-weight="600" fill="#111827">One pure graph, rendered</text>
    <text x="1280" y="213" font-size="12" fill="#6b7280">explorer SPA in the browser</text>
    <text x="1280" y="229" font-size="12" fill="#6b7280">baked deploy needs no token</text>
    <circle cx="1266" cy="167" r="12.5" fill="url(#node)"/>
    <text x="1266" y="171.5" text-anchor="middle" font-size="13" font-weight="700" fill="#ffffff">5</text>
    </g>

  <text x="800" y="862" text-anchor="middle" font-size="14" fill="#94a3b8">Same graph, same code — the only difference is whether the bytes came from a baked manifest or a live API call.</text>
</svg>
